<svg xmlns="http://www.w3.org/2000/svg" width="128" height="128"><g fill="none" fill-rule="evenodd"><path d="M57.139 9.846c24.291 0 44.843 16.035 51.675 38.106C101 49.123 95.002 55.85 95.002 64c0 8.151 5.997 14.879 13.812 16.046-6.832 22.073-27.384 38.108-51.675 38.108-29.871 0-54.091-24.247-54.091-54.154 0-29.91 24.22-54.154 54.091-54.154z" fill="#020051"/><path d="M57.139 8.322c24.545 0 45.976 16.065 53.13 39.18l.526 1.694-1.755.263A14.703 14.703 0 0096.526 64c0 7.31 5.358 13.471 12.513 14.54l1.756.262-.525 1.695c-7.155 23.117-28.586 39.182-53.131 39.182-30.714 0-55.615-24.93-55.615-55.678 0-30.75 24.9-55.678 55.615-55.678z" stroke="#fff" stroke-width="3.04761"/><path d="M97.908 63.76c0-7.474 6.057-13.54 13.522-13.54 7.464 0 13.522 6.065 13.522 13.54 0 7.474-6.058 13.538-13.522 13.538-7.465 0-13.522-6.064-13.522-13.538z" fill="#b50c16"/><path d="M96.384 63.76c0-8.316 6.739-15.063 15.046-15.063 8.307 0 15.046 6.747 15.046 15.063 0 8.315-6.74 15.062-15.045 15.062-8.308 0-15.047-6.747-15.047-15.062z" stroke="#fff" stroke-width="3.04761"/><path d="M19.601 42.236c0-.823.832-1.717 1.668-1.717h31.83c.878 0 1.452.865 1.452 1.717v43.729c0 .83-.471 1.516-1.452 1.516H40.19c-.86 0-1.273-.603-1.273-1.516v-32.54c0-2.27-3.68-2.215-3.68.01v32.53c0 .883-.708 1.516-1.5 1.516H21.27c-.89 0-1.668-.592-1.668-1.516zm38.63 43.816c0 .822.137 1.429.971 1.429h31.832c.879 0 1.226-.578 1.226-1.429V42.323c0-.83-.246-1.804-1.226-1.804H78.125c-.862 0-1.5.89-1.5 1.804v32.539c0 2.272-3.679 2.215-3.679-.01V42.323c0-.883-.484-1.804-1.275-1.804H59.202c-.888 0-.972.88-.972 1.804z" fill="#fff"/><g fill="#fff"><path d="M112.922 69.22h-2.091v-4.038c0-.854-.045-1.405-.134-1.654a1.154 1.154 0 00-.439-.588 1.226 1.226 0 00-.722-.209c-.362 0-.687.1-.974.298a1.52 1.52 0 00-.596.79c-.104.328-.156.933-.156 1.817v3.583h-2.09v-7.91h1.941v1.162c.69-.894 1.558-1.341 2.605-1.341.46 0 .882.084 1.264.253.382.164.67.375.864.633.198.258.334.551.409.88.08.327.119.796.119 1.407v4.916M115.05 69.22V58.298h2.09v10.92h-2.09"/></g></g></svg>