<?xml version="1.0" encoding="utf-8"?>
<!-- Generator: Adobe Illustrator 22.1.0, SVG Export Plug-In . SVG Version: 6.00 Build 0)  -->
<svg version="1.1" id="Layer_1" xmlns="http://www.w3.org/2000/svg" xmlns:xlink="http://www.w3.org/1999/xlink" x="0px" y="0px"
	 viewBox="0 0 240 90" enable-background="new 0 0 240 90" xml:space="preserve">
<g>
	<path fill="#262627" d="M77.7,38.5v-2.7h14.1v2.7h-5.6V54h-2.8V38.5H77.7z M115.6,54.2c-1.5,0-2.8-0.7-3.5-1.7v6.7h-2.7V40.9h2.7
		v1.5c0.5-0.9,2-1.7,3.5-1.7c3.8,0,5.8,2.5,5.8,6.7C121.4,51.6,119.4,54.2,115.6,54.2L115.6,54.2z M118.6,47.4
		c0-1.3-0.3-2.4-0.9-3.2c-0.6-0.8-1.4-1.2-2.4-1.2s-1.8,0.4-2.4,1.2c-0.6,0.8-0.9,1.8-0.9,3.2s0.3,2.4,0.9,3.2
		c0.6,0.8,1.4,1.2,2.4,1.2s1.8-0.4,2.4-1.2C118.3,49.8,118.6,48.8,118.6,47.4z M135.7,48.2h-9.1c0,2.1,1.2,3.6,3.2,3.6
		c1.5,0,2.7-0.8,3.4-2.2l2.3,0.9c-1.3,2.6-2.8,3.7-5.7,3.7c-4.3,0-6-3.6-6-6.7c0-3.1,1.8-6.7,6-6.7c4.1,0,6,3.4,6,6.3L135.7,48.2
		L135.7,48.2L135.7,48.2z M126.6,46h6.3c-0.2-1.6-1.3-2.9-3.1-2.9C128,43.1,126.9,44.2,126.6,46L126.6,46z M137.9,43.3v-2.4h1.7
		v-0.7c0-3.1,1.6-4.6,4.3-4.6c0.9,0,1.5,0.1,2.1,0.5l-0.5,2.3c-0.5-0.2-1-0.4-1.5-0.4c-1.1,0-1.7,0.7-1.7,2.1v0.9h2.9v2.4h-2.9V54
		h-2.7V43.3L137.9,43.3C137.9,43.3,137.9,43.3,137.9,43.3z M146.8,47.4c0-1.9,0.5-3.5,1.7-4.8c1.1-1.3,2.7-1.9,4.6-1.9
		c1.9,0,3.5,0.6,4.6,1.9c1.1,1.3,1.7,2.9,1.7,4.8c0,1.9-0.6,3.5-1.7,4.8c-1.1,1.3-2.7,1.9-4.6,1.9c-1.9,0-3.5-0.6-4.6-1.9
		C147.4,51,146.8,49.4,146.8,47.4L146.8,47.4z M149.6,47.4c0,1.2,0.3,2.2,0.9,3.1c0.6,0.9,1.5,1.3,2.6,1.3c1.1,0,2-0.4,2.6-1.3
		c0.6-0.9,1-1.9,1-3.1c0-1.2-0.3-2.2-1-3c-0.6-0.9-1.5-1.3-2.6-1.3c-1.1,0-2,0.5-2.6,1.3C149.9,45.3,149.6,46.3,149.6,47.4z
		 M164.7,54H162V40.9h2.7v2.2c0.9-1.5,2.4-2.4,3.8-2.4c0.6,0,1.1,0.1,1.6,0.3l-0.5,2.5c-0.4-0.3-0.9-0.4-1.5-0.4
		c-1,0-1.8,0.5-2.5,1.6c-0.7,1.1-1,2.5-1,4.5L164.7,54L164.7,54z M172.9,40.9h2.7v2.2c1-1.6,2.3-2.4,3.9-2.4c1.7,0,3.2,1.1,3.5,2.7
		c0.9-1.7,2.4-2.7,4-2.7c2.3,0,3.7,1.6,3.7,3.9v9.3H188v-8.7c0-1.4-0.7-2.1-1.9-2.1c-1.7,0-3,2.2-3,5.7V54h-2.7v-8.7
		c0-1.4-0.7-2.1-1.9-2.1c-1.7,0-3,2.2-3,5.9v5h-2.7L172.9,40.9L172.9,40.9L172.9,40.9z M107,40.9h-3.1l-4.4,9.6l-4.1-9.6h-3l5.6,13
		l-2.5,5.3h3.1L107,40.9L107,40.9z"/>
	<path fill="none" stroke="#262627" d="M120.6,61.3c-2.8,6.4-5.9,11.3-10.1,15.4c-4.7,4.5-10.4,6.9-16.8,7.5
		c-5.3,0.5-10.5-0.2-15.6-1.7c-5.2-1.5-10-3.9-14.1-7.6c-3.4-3.1-6-6.7-8-10.8c-3.1-6.3-5.2-12.9-6.2-19.9c-0.6-4.5-0.7-9,0.5-13.4
		c1.1-4.2,3.3-7.8,6.4-10.8c3.1-3,6.6-5.3,10.4-7.2c5.8-2.9,11.9-5,18.3-6.2c4.6-0.8,9.1-1,13.7-0.1c4.3,0.9,8,3,11.3,6
		c3.5,3.3,6.1,7.2,8.2,11.5c2.4,4.9,4.2,10.1,4.9,15.6c0.8,5.5,0.4,10.9-1.1,16.2C121.8,57.9,121,60.1,120.6,61.3L120.6,61.3z"/>
</g>
</svg>
