<svg xmlns="http://www.w3.org/2000/svg" width="577.015" height="519.815" viewBox="0 0 577.015 519.815"><g transform="translate(-11.375 -40.493)"><path d="M252.38,432.761h0l-215-215.251a129.879,129.879,0,0,1-15.962-19.349,126.485,126.485,0,0,1-19-45.722,131.016,131.016,0,0,1,.094-50.552A121.133,121.133,0,0,1,10.034,77.9,133.961,133.961,0,0,1,21.888,56.164,127.312,127.312,0,0,1,56.164,21.889,133.957,133.957,0,0,1,77.9,10.035a121.15,121.15,0,0,1,23.99-7.526A129.049,129.049,0,0,1,127.444,0a141.26,141.26,0,0,1,19.474,1.286A105.544,105.544,0,0,1,164.2,5.143,130.35,130.35,0,0,1,179.751,11.2a121.946,121.946,0,0,1,14.3,7.871,176.23,176.23,0,0,1,25.966,20.446c8.164,7.748,16.6,16.146,25.087,24.962L252.38,72l8.028-8.278c8.491-8.658,16.89-16.972,24.962-24.711A168.033,168.033,0,0,1,311.085,18.69a119.44,119.44,0,0,1,14.174-7.746,127.963,127.963,0,0,1,15.428-5.927,106.1,106.1,0,0,1,17.185-3.763A144.058,144.058,0,0,1,377.316,0a129.05,129.05,0,0,1,25.558,2.509,121.149,121.149,0,0,1,23.99,7.526A133.964,133.964,0,0,1,448.6,21.889a127.315,127.315,0,0,1,34.276,34.276A133.991,133.991,0,0,1,494.726,77.9a121.165,121.165,0,0,1,7.526,23.99,130.983,130.983,0,0,1,.094,50.552,126.489,126.489,0,0,1-19,45.722,129.886,129.886,0,0,1-15.962,19.349l-215,215.251Z" transform="translate(47.502 76.619)" fill="#e81224" stroke="#e81224" stroke-width="3"/><path d="M436.819-157.507a158.555,158.555,0,0,1,43.4,5.9,166.451,166.451,0,0,1,39.011,16.558,163.782,163.782,0,0,1,33.116,25.589,163.783,163.783,0,0,1,25.589,33.116,166.447,166.447,0,0,1,16.558,39.011,158.554,158.554,0,0,1,5.9,43.4,162.144,162.144,0,0,1-12.167,62.719,162.337,162.337,0,0,1-35.75,52.935l-240.59,240.59L71.292,121.718a162.335,162.335,0,0,1-35.75-52.935A162.144,162.144,0,0,1,23.375,6.064a159.9,159.9,0,0,1,5.9-43.527A166.661,166.661,0,0,1,45.7-76.474,162.425,162.425,0,0,1,71.292-109.59a162.424,162.424,0,0,1,33.116-25.589,166.659,166.659,0,0,1,39.011-16.432,159.9,159.9,0,0,1,43.527-5.9,163.378,163.378,0,0,1,36.377,3.889,152.963,152.963,0,0,1,32.238,11.164,165.428,165.428,0,0,1,29.1,17.938,258.145,258.145,0,0,1,27.22,24.21,258.136,258.136,0,0,1,27.22-24.21,171.31,171.31,0,0,1,29.1-18.063,144.078,144.078,0,0,1,32.238-11.164A168.606,168.606,0,0,1,436.819-157.507ZM311.882,311.38l215-215.252A126.765,126.765,0,0,0,554.6,54.859a125.732,125.732,0,0,0,9.659-48.8,123.485,123.485,0,0,0-10.035-49.548A129.223,129.223,0,0,0,526.883-84a129.223,129.223,0,0,0-40.516-27.345,123.486,123.486,0,0,0-49.548-10.035q-20.572,0-36.628,5.018a122.623,122.623,0,0,0-29.6,13.673A167.307,167.307,0,0,0,344.872-82.37Q332.705-70.7,319.91-57.659l-8.028,8.279-7.275-7.526q-12.795-13.3-25.088-24.962a175.4,175.4,0,0,0-25.966-20.446A125.054,125.054,0,0,0,223.7-116.238q-16.182-5.143-36.753-5.143A123.485,123.485,0,0,0,137.4-111.346,129.225,129.225,0,0,0,96.882-84,129.224,129.224,0,0,0,69.536-43.484,123.484,123.484,0,0,0,59.5,6.064a125.73,125.73,0,0,0,9.659,48.8A126.765,126.765,0,0,0,96.882,96.128Z" transform="translate(-12 198)"/><path d="M92.2,187.616l-81.6-81.6C6.06,101.476,2.207,91.589.847,80.622A24.817,24.817,0,0,1,0,74.184V24.73a24.729,24.729,0,1,1,49.457,0V74.148q.042.124.085.242a26.819,26.819,0,0,0,1.328,2.964l76.3,75.291A24.728,24.728,0,1,1,92.2,187.616Z" transform="translate(117.498 151.788)" fill="#ef6950"/></g></svg>