<?xml version="1.0" encoding="utf-8"?>
<!-- Generator: Adobe Illustrator 21.0.0, SVG Export Plug-In . SVG Version: 6.00 Build 0)  -->
<svg version="1.1" id="Calque_1" xmlns="http://www.w3.org/2000/svg" xmlns:xlink="http://www.w3.org/1999/xlink" x="0px" y="0px"
	 viewBox="0 0 2048 2048" style="enable-background:new 0 0 2048 2048;" xml:space="preserve">
<style type="text/css">
	.st0{fill:#FFFFFF;}
	.st1{fill:#222221;}
	.st2{fill:#EBEBEB;}
</style>
<g id="Layer_2">
	<g id="Layer_1-2">
		<path class="st0" d="M1932.8,2038H114.3c-58,0.1-105.1-46.8-105.2-104.8c0-0.1,0-0.1,0-0.2V114.3C9.1,56.2,56.2,9.1,114.3,9.1
			c0,0,0,0,0,0h1818.5c58.1,0,105.2,47.1,105.2,105.2v1819.6c0,58-47,105-105,105c-0.1,0-0.1,0-0.2,0"/>
		<path class="st1" d="M1932.8,2047.1H114.3C51.2,2047.1,0.1,1996,0,1933V114.3C0.1,51.2,51.2,0.1,114.3,0h1818.5
			c63.1,0,114.3,51.2,114.3,114.3v1819.6c-0.1,63-51.2,114.1-114.3,114.1 M114.3,18.2c-53,0.1-96,43.1-96.1,96.1v1819.6
			c0.1,53,43.1,95.9,96.1,95.9h1818.5c53,0,96-42.9,96.1-95.9V114.3c-0.1-53-43.1-96-96.1-96.1H114.3z"/>
		<path class="st2" d="M1933.4,295.3H113.7c-57.8,0-104.6-46.8-104.6-104.6v-77C9,56,55.7,9.2,113.4,9.1c0.1,0,0.2,0,0.4,0h1819.6
			C1991,9,2037.9,55.7,2038,113.4c0,0.1,0,0.2,0,0.4v77C2038,248.5,1991.1,295.3,1933.4,295.3"/>
		<path class="st1" d="M1933.5,304.4H113.7C51,304.3,0.1,253.5,0,190.7v-77C0,50.9,50.9,0,113.7,0h1819.6
			c62.7,0.1,113.5,51,113.5,113.7v77c-0.1,62.7-50.8,113.5-113.5,113.7 M113.7,18.2C61,18.2,18.2,61,18.2,113.7v77
			c0.1,52.7,42.8,95.4,95.5,95.5h1819.6c52.7-0.1,95.3-42.8,95.3-95.5v-77c0-52.6-42.5-95.3-95.2-95.5H113.7z"/>
		<path class="st1" d="M204.7,150.1c0-20.1-16.3-36.4-36.4-36.4s-36.4,16.3-36.4,36.4s16.3,36.4,36.4,36.4S204.7,170.2,204.7,150.1"
			/>
		<path class="st1" d="M319,150.1c0-20.1-16.3-36.4-36.4-36.4s-36.4,16.3-36.4,36.4s16.3,36.4,36.4,36.4S319,170.2,319,150.1"/>
		<path class="st1" d="M433.3,150.1c0-20.1-16.3-36.4-36.4-36.4s-36.4,16.3-36.4,36.4s16.3,36.4,36.4,36.4S433.3,170.2,433.3,150.1"
			/>
		<path class="st1" d="M601.9,1065.9l33.8,22.9c-9.7,26-24.7,49.7-44,69.7c-12.1,11.3-28,17.8-44.6,18.2
			c-26.3-2.6-50.2-16.4-65.7-37.8c-19.5-23.8-33.3-40.8-41.1-50.8c-7.3-9.8-19-15.2-31.1-14.6c-12.8-0.3-24.6,6.8-30.4,18.2
			c-8.3,15.5-15.6,31.6-21.8,48l-34.6-19.8c6.9-26.6,20.3-51,38.9-71.1c12.5-13.6,29.8-21.7,48.2-22.7c29.2,0,55.4,17.3,78.6,52
			c23.3,34.9,42.9,52.6,59,52.6c14.2-0.2,27.1-8.2,33.7-20.7c8.1-13.8,15.2-28.2,21.1-43.1"/>
		<polygon class="st1" points="871.2,881.4 920.7,881.4 716.2,1319.4 666.5,1319.4 		"/>
		<path class="st1" d="M1138.9,888.7l-23.5,92.1h63.7l23.7-92.1h41.7l-23.7,92.1h63.5v39.9h-72.8l-25.5,102.3h65.1v39.9h-75.7
			l-26.9,107.2h-41.7l27.3-107.2h-64.1l-27.3,107.2h-42l27.1-107.2h-66.6v-39.9h77.3l25.5-102.3H995v-39.9h78.6l23.5-92.1H1138.9z
			 M1169.5,1020.6h-63.7l-25.5,102.3h64.1L1169.5,1020.6z"/>
		<path class="st1" d="M1417,916.4c28.9,0,51.6,16.7,68.2,50.2c4.9,9.5,8.2,19.8,9.6,30.4l0,0c4-21.2,13.4-40.9,27.1-57.5
			c13.4-14.6,32.2-22.9,52-23.1c31.4,0.5,59.6,19.3,72.2,48c4.3,10.6,6.7,21.9,6.9,33.3c-1.2,38.5-17.2,75-44.6,102.1l-113.2,135.7
			h-1.3l-120.3-147.4c-22.6-25-35.5-57.3-36.4-91c0-29.9,16.4-57.4,42.8-71.5c11.1-6.3,23.6-9.6,36.4-9.6"/>
	</g>
</g>
</svg>
