<?xml version="1.0" standalone="no"?>
<!DOCTYPE svg PUBLIC "-//W3C//DTD SVG 20010904//EN"
 "http://www.w3.org/TR/2001/REC-SVG-20010904/DTD/svg10.dtd">
<svg version="1.0" xmlns="http://www.w3.org/2000/svg"
 width="700.000000pt" height="700.000000pt" viewBox="0 0 700.000000 700.000000"
 preserveAspectRatio="xMidYMid meet">
<metadata>
Created by potrace 1.11, written by Peter Selinger 2001-2013
</metadata>
<g transform="translate(0.000000,700.000000) scale(0.100000,-0.100000)"
fill="#000000" stroke="none">
<path d="M260 6978 c-125 -47 -209 -137 -244 -258 -15 -50 -16 -355 -14 -3235
l3 -3180 24 -59 c27 -67 123 -173 181 -199 98 -43 -52 -41 3280 -43 3447 -2
3217 -6 3317 52 74 44 144 135 176 229 7 20 11 1076 12 3205 2 3443 6 3219
-51 3317 -36 62 -100 120 -173 156 l-66 32 -3195 2 -3195 2 -55 -21z"/>
</g>
</svg>
