<?xml version="1.0" standalone="no"?>
<!DOCTYPE svg PUBLIC "-//W3C//DTD SVG 20010904//EN"
 "http://www.w3.org/TR/2001/REC-SVG-20010904/DTD/svg10.dtd">
<svg version="1.0" xmlns="http://www.w3.org/2000/svg"
 width="2144.000000pt" height="2144.000000pt" viewBox="0 0 2144.000000 2144.000000"
 preserveAspectRatio="xMidYMid meet">
<metadata>
Created by potrace 1.11, written by Peter Selinger 2001-2013
</metadata>
<g transform="translate(0.000000,2144.000000) scale(0.100000,-0.100000)"
fill="#000000" stroke="none">
<path d="M7099 14496 c-2 -3 -34 -7 -70 -10 -35 -2 -92 -9 -124 -15 -33 -6
-73 -13 -90 -16 -16 -3 -66 -14 -110 -25 -44 -12 -84 -22 -90 -24 -46 -11
-215 -71 -265 -94 -19 -8 -36 -15 -37 -14 -3 2 -193 -96 -247 -127 -298 -170
-608 -471 -802 -777 -128 -203 -268 -531 -301 -709 -2 -11 -8 -36 -13 -55 -5
-19 -12 -51 -15 -70 -3 -19 -8 -48 -12 -65 -3 -16 -7 -41 -8 -55 -2 -14 -6
-56 -11 -95 -14 -130 -7 -472 11 -567 3 -12 12 -63 20 -112 14 -78 45 -208 63
-256 3 -8 7 -24 9 -34 2 -11 8 -25 14 -32 5 -6 9 -16 7 -20 -1 -5 6 -26 15
-48 9 -21 17 -42 17 -47 0 -5 9 -25 19 -46 11 -21 32 -65 47 -98 55 -118 209
-365 263 -422 12 -12 21 -24 21 -27 0 -14 234 -251 1863 -1882 990 -991 1803
-1808 1808 -1815 6 -10 30 8 95 74 48 48 90 88 93 88 3 1 56 54 116 119 61 65
112 118 115 119 8 1 280 274 281 281 1 3 36 37 79 75 43 39 79 75 80 80 2 6
110 114 240 240 130 127 238 235 240 240 2 6 218 222 480 480 262 259 478 475
480 480 1 6 74 78 160 160 86 83 158 155 159 162 0 6 5 13 11 15 13 4 881 871
965 963 53 59 99 114 178 215 68 87 241 392 229 404 -3 3 0 6 6 6 7 0 12 8 12
18 0 10 4 22 8 28 16 17 102 266 116 338 3 11 7 31 10 44 11 41 14 59 20 98
10 60 16 96 21 129 24 131 24 567 1 637 -3 7 -7 31 -10 53 -4 33 -22 122 -40
205 -15 62 -50 178 -66 215 -4 11 -23 58 -41 105 -38 99 -135 292 -179 355
-16 24 -30 48 -30 53 0 6 -4 12 -8 14 -5 2 -28 32 -53 67 -71 103 -73 105 -96
127 -13 12 -23 24 -23 27 0 3 -10 17 -22 30 -13 13 -51 52 -84 88 -87 91 -163
158 -301 264 -39 30 -75 55 -79 55 -4 0 -17 8 -28 19 -18 15 -251 151 -261
151 -2 0 -39 16 -82 36 -128 59 -367 134 -503 158 -14 2 -32 7 -40 10 -94 35
-584 42 -790 11 -19 -3 -57 -10 -85 -16 -27 -6 -63 -13 -80 -16 -38 -7 -47 -9
-65 -16 -17 -6 -69 -20 -85 -22 -11 -2 -36 -11 -75 -27 -14 -5 -36 -12 -50
-15 -13 -2 -29 -8 -36 -14 -6 -5 -14 -6 -17 -2 -4 3 -7 1 -7 -5 0 -7 -4 -12
-10 -12 -5 0 -35 -12 -67 -27 -32 -14 -60 -27 -63 -27 -22 -5 -294 -168 -344
-207 -182 -141 -263 -210 -376 -319 -96 -92 -79 -91 -157 -13 -86 85 -154 146
-218 198 -28 22 -52 42 -55 45 -17 18 -198 146 -265 187 -208 128 -512 249
-700 280 -16 2 -37 7 -45 10 -8 4 -18 6 -22 5 -4 -1 -31 3 -60 8 -29 6 -69 12
-88 15 -45 8 -465 17 -471 11z"/>
<path d="M16431 13510 c-6 -16 -16 -45 -23 -62 -6 -18 -17 -46 -24 -63 -7 -16
-33 -88 -59 -160 -25 -71 -50 -139 -55 -150 -13 -27 -80 -206 -85 -225 -2 -8
-22 -62 -44 -120 -21 -58 -83 -222 -136 -365 -53 -143 -100 -269 -105 -280 -5
-11 -12 -31 -15 -45 -4 -14 -13 -38 -21 -55 -7 -16 -50 -129 -94 -250 -45
-121 -93 -249 -107 -285 -14 -35 -26 -69 -28 -75 -3 -13 -14 -43 -30 -80 -8
-16 -17 -43 -21 -60 -4 -16 -15 -48 -24 -70 -17 -37 -54 -134 -56 -145 0 -3
-6 -18 -13 -35 -7 -16 -14 -34 -15 -40 -2 -5 -9 -23 -16 -40 -7 -16 -14 -35
-16 -42 -2 -11 -74 -207 -97 -263 -6 -14 -11 -29 -13 -35 -4 -17 -137 -373
-164 -440 -5 -11 -18 -47 -30 -80 -11 -33 -24 -67 -27 -75 -3 -8 -7 -17 -8
-20 -1 -3 -6 -16 -12 -30 -6 -14 -19 -52 -31 -85 -11 -33 -26 -73 -33 -90 -7
-16 -13 -32 -14 -35 -1 -3 -5 -13 -8 -22 -15 -40 -20 -53 -23 -63 -3 -15 -53
-147 -64 -170 -10 -23 -51 -135 -54 -150 -3 -10 -9 -26 -48 -124 -12 -29 -21
-60 -21 -67 0 -8 -3 -14 -6 -14 -4 0 -13 -21 -20 -47 -8 -27 -18 -55 -22 -63
-4 -8 -18 -42 -30 -75 -12 -33 -25 -69 -29 -80 -31 -80 -62 -170 -59 -170 1 0
-7 -18 -18 -40 -12 -22 -22 -44 -23 -50 -5 -18 -12 -40 -52 -145 -22 -58 -42
-112 -43 -120 -2 -8 -4 -16 -5 -17 -2 -2 -3 -6 -4 -10 -2 -5 -8 -20 -16 -35
-26 -55 -43 -53 494 -52 273 1 497 3 499 5 1 2 10 24 19 49 9 25 62 167 118
315 56 149 103 275 104 280 2 6 6 17 9 25 19 45 116 311 127 345 7 22 16 44
21 50 5 5 9 15 9 23 0 8 6 28 14 45 16 37 19 44 167 442 61 165 112 306 112
313 0 6 4 12 9 12 4 0 8 6 8 14 0 8 5 27 12 43 6 15 12 33 14 38 1 6 7 24 14
40 6 17 11 31 11 33 -1 1 6 16 15 33 8 17 17 38 19 47 2 10 24 71 50 137 25
66 48 125 49 130 4 13 10 30 52 140 20 50 36 97 38 105 1 8 7 24 13 35 6 11
20 47 31 80 11 33 26 74 33 90 7 17 13 32 13 35 1 3 6 19 13 35 17 45 26 69
28 75 1 3 5 13 8 23 16 40 20 53 22 62 2 8 42 112 80 210 5 11 9 23 10 28 2 4
3 8 5 10 1 1 3 9 5 18 1 9 10 32 18 50 8 19 34 86 57 149 23 63 53 143 66 177
13 34 24 63 24 66 0 2 8 22 17 43 9 22 17 41 18 44 3 14 17 57 25 75 4 11 21
56 38 100 16 44 56 150 88 235 32 85 59 157 59 160 0 3 14 39 30 80 16 41 30
78 31 83 1 4 3 9 4 12 1 3 3 8 4 13 1 6 36 97 56 147 5 11 36 97 70 190 35 94
67 176 73 183 5 6 7 12 4 12 -3 0 8 35 24 78 16 42 29 78 29 80 0 1 -227 2
-504 2 l-504 0 -11 -30z"/>
<path d="M3235 12680 c-203 -102 -373 -189 -376 -193 -3 -5 -8 -7 -11 -5 -5 4
-141 -64 -149 -75 -3 -5 -9 -8 -13 -7 -3 0 -188 -90 -411 -200 -222 -111 -407
-201 -411 -200 -4 1 -10 -3 -13 -8 -8 -12 -131 -73 -131 -65 0 3 -8 0 -17 -8
-26 -22 -143 -80 -143 -71 0 4 -4 2 -8 -3 -8 -13 -894 -455 -910 -455 -5 0
-12 -3 -14 -7 -3 -8 -210 -113 -222 -113 -4 0 -12 -5 -19 -10 -16 -14 -262
-134 -263 -129 -1 2 -10 -3 -20 -12 -11 -8 -38 -24 -61 -34 l-43 -18 0 -263 0
-264 42 -19 c24 -10 97 -42 163 -71 66 -29 153 -68 193 -86 41 -19 76 -34 78
-34 3 0 33 -13 67 -29 129 -59 204 -91 215 -91 7 0 12 -4 12 -10 0 -5 5 -10
12 -10 12 0 244 -100 374 -161 34 -16 64 -29 67 -29 3 0 34 -13 69 -29 75 -34
157 -71 328 -146 47 -21 105 -47 130 -58 25 -11 47 -21 50 -22 3 0 21 -8 40
-17 19 -8 51 -22 70 -31 46 -20 111 -49 185 -83 33 -15 65 -28 70 -29 6 -2 42
-17 80 -35 121 -55 129 -58 180 -81 28 -12 91 -39 140 -61 50 -21 99 -43 110
-48 69 -32 177 -80 180 -80 2 0 38 -16 79 -35 42 -19 78 -35 81 -35 2 0 35
-14 72 -31 84 -38 137 -62 183 -82 19 -8 60 -26 90 -40 30 -13 75 -33 100 -43
24 -11 69 -31 99 -46 31 -14 59 -24 63 -22 4 3 7 200 7 438 l-1 434 -21 7
c-12 4 -24 8 -27 10 -3 1 -14 5 -25 10 -243 100 -306 125 -310 125 -3 0 -24 9
-48 20 -23 10 -121 51 -217 90 -96 39 -188 77 -205 85 -62 29 -220 90 -227 87
-5 -1 -8 2 -8 8 0 5 -8 10 -18 10 -10 0 -23 5 -30 12 -7 7 -12 9 -12 4 0 -4
-12 0 -27 8 -25 14 -79 37 -93 40 -6 2 -227 93 -255 106 -11 5 -94 39 -185 76
-91 36 -181 73 -200 81 -19 8 -44 19 -55 23 -11 4 -36 15 -55 23 -19 8 -89 36
-155 62 -66 27 -124 52 -129 57 -6 4 -16 8 -23 8 -7 0 -36 11 -65 24 -29 13
-63 27 -75 31 -31 9 -29 18 9 34 18 8 80 37 138 64 111 52 188 87 310 144 41
19 103 48 137 64 34 16 67 29 72 29 6 0 11 5 11 10 0 6 7 10 15 10 8 0 31 9
52 19 45 23 173 83 343 161 69 32 159 73 200 92 41 20 102 48 135 63 33 15
103 48 155 72 52 25 120 56 150 70 30 13 91 42 135 63 71 34 151 70 165 75 3
1 41 19 85 40 222 105 271 127 283 128 6 0 12 3 12 6 0 3 13 12 29 19 l30 13
0 433 c0 332 -3 432 -12 432 -7 -1 -178 -84 -382 -186z"/>
<path d="M17811 12434 l0 -436 57 -25 c31 -13 82 -37 113 -53 32 -16 60 -26
63 -23 3 4 6 1 6 -5 0 -7 5 -12 10 -12 6 0 62 -25 126 -55 64 -30 118 -55 119
-55 2 0 57 -25 122 -56 198 -93 216 -102 273 -127 93 -42 213 -98 262 -122 25
-13 49 -21 52 -18 3 4 6 1 6 -5 0 -7 4 -12 9 -12 5 0 47 -17 93 -39 45 -21
112 -52 148 -68 84 -39 206 -96 295 -138 39 -18 102 -48 140 -65 39 -18 116
-54 173 -81 57 -27 105 -49 108 -49 3 0 57 -25 122 -56 64 -31 137 -66 162
-77 43 -19 44 -20 20 -27 -14 -4 -59 -22 -100 -39 -41 -18 -120 -50 -175 -72
-55 -23 -143 -59 -195 -80 -52 -22 -129 -54 -170 -71 -41 -17 -94 -39 -117
-49 -24 -11 -50 -19 -58 -19 -8 0 -15 -5 -15 -12 0 -6 -3 -9 -6 -6 -3 3 -40
-9 -82 -27 -78 -33 -113 -47 -122 -50 -3 -1 -22 -9 -44 -18 -21 -9 -40 -17
-42 -17 -2 0 -27 -11 -56 -23 -29 -13 -69 -30 -88 -37 -19 -7 -53 -21 -75 -31
-22 -9 -76 -31 -120 -49 -44 -17 -93 -38 -110 -45 -16 -8 -82 -34 -145 -60
-63 -25 -124 -50 -135 -55 -19 -9 -74 -32 -85 -35 -3 -1 -23 -9 -45 -19 -22
-10 -44 -19 -50 -20 -11 -3 -25 -9 -125 -51 -98 -41 -115 -48 -120 -50 -3 -1
-18 -7 -33 -13 -16 -7 -30 -12 -32 -12 -3 0 -34 -13 -69 -30 l-65 -29 0 -436
c0 -239 1 -435 3 -435 2 0 16 6 32 14 27 14 83 38 94 41 3 0 31 13 63 28 32
15 60 27 62 27 2 0 32 13 67 29 85 40 162 74 168 75 3 1 21 9 40 18 19 9 98
44 175 78 77 34 159 70 182 81 23 10 44 19 46 19 3 0 45 19 93 41 49 23 93 42
99 44 5 1 36 14 68 28 110 52 172 79 182 82 6 1 42 17 80 34 137 63 155 71
159 71 2 0 37 15 78 34 60 28 277 124 438 194 19 8 62 27 95 42 33 16 110 49
170 75 61 26 133 58 160 70 28 13 109 49 180 80 72 32 146 64 165 73 19 9 37
16 40 17 3 1 22 9 42 18 286 128 353 157 364 157 6 0 17 7 24 15 6 8 15 14 18
13 4 -1 18 4 32 10 14 6 66 28 115 50 l90 39 3 264 2 264 -852 425 c-469 233
-856 428 -859 433 -3 5 -9 8 -13 8 -12 -3 -166 72 -166 81 0 4 -6 8 -12 8 -7
0 -396 191 -865 425 -468 234 -854 425 -857 425 -3 0 -5 -196 -5 -436z"/>
</g>
</svg>
