<svg width="69" height="66" viewBox="0 0 69 66" fill="none" xmlns="http://www.w3.org/2000/svg">
<path d="M13.2075 7.78184C13.2075 9.59844 11.7277 11.0725 9.90165 11.0725H4.53194V4.49226H9.90165C11.7277 4.49121 13.2075 5.96524 13.2075 7.78184ZM17.9204 7.80384V7.79546C17.9204 3.48967 14.4136 0 10.089 0H0V22.1512H4.53299V15.6003H10.09C14.4146 15.6003 17.9204 12.1096 17.9204 7.80384ZM29.8144 48.8774H46.2035V44.3789H34.3327V40.7321C36.0324 40.4744 37.7963 40.0218 39.6087 39.366L41.8168 38.5666L40.2107 34.1697L38.0026 34.969C36.6839 35.4468 35.4641 35.7799 34.3327 35.9978V31.1934H46.2035V26.6948H29.8144V36.265C27.0548 36.003 25.1183 34.9208 23.8143 33.7821C21.5115 31.7716 19.115 27.7341 20.7821 19.9145L21.2694 17.6265L16.6722 16.6553L16.1849 18.9433C14.4925 26.8865 16.0597 33.2341 20.7168 37.299C22.6313 38.9699 24.8941 40.0773 27.4211 40.6116C28.1946 40.775 28.9945 40.8819 29.8154 40.9374V48.8774H29.8144ZM64.527 54.4697C64.527 55.4786 64.3818 56.4141 64.0913 57.2784C63.8008 58.1417 63.384 58.8855 62.8399 59.5099C62.2958 60.1343 61.6401 60.6225 60.8718 60.9755C60.1035 61.3286 59.2425 61.5046 58.2869 61.5046C57.3313 61.5046 56.4672 61.3275 55.6936 60.9755C54.919 60.6225 54.2601 60.1343 53.716 59.5099C53.1719 58.8866 52.7551 58.1427 52.4646 57.2784C52.1741 56.4152 52.03 55.4786 52.03 54.4697C52.03 53.4619 52.1752 52.5253 52.4646 51.6621C52.7551 50.7988 53.1719 50.0518 53.716 49.4212C54.2601 48.7915 54.919 48.2991 55.6936 47.9461C56.4672 47.593 57.3323 47.416 58.2869 47.416C59.2425 47.416 60.1035 47.593 60.8718 47.9461C61.639 48.2991 62.2958 48.7905 62.8399 49.4212C63.384 50.0518 63.8008 50.7988 64.0913 51.6621C64.3818 52.5253 64.527 53.4608 64.527 54.4697ZM69 54.475C69 52.8228 68.7516 51.2901 68.2527 49.8748C67.7549 48.4605 67.0392 47.2368 66.1057 46.2039C65.1722 45.172 64.046 44.3663 62.7283 43.787C61.4106 43.2087 59.9319 42.9195 58.2932 42.9195C56.6535 42.9195 55.1705 43.2087 53.8423 43.787C52.5141 44.3653 51.3837 45.1709 50.4491 46.2039C49.5156 47.2368 48.7999 48.4605 48.3021 49.8748C47.8043 51.2901 47.5548 52.8228 47.5548 54.475C47.5548 56.1271 47.8032 57.6608 48.3021 59.0762C48.7999 60.4915 49.5156 61.7089 50.4491 62.7314C51.3827 63.7539 52.5141 64.5543 53.8423 65.1326C55.1695 65.7098 56.6535 66 58.2932 66C59.9319 66 61.4106 65.7098 62.7283 65.1326C64.045 64.5543 65.1711 63.7539 66.1057 62.7314C67.0392 61.7089 67.7549 60.4905 68.2527 59.0762C68.7516 57.6619 69 56.1281 69 54.475Z" fill="black"/>
</svg>
